<svg id="Layer_2" data-name="Layer 2" xmlns="http://www.w3.org/2000/svg" viewBox="0 0 189.95 151.25"><defs><style>.cls-1{fill:none;}.cls-1,.cls-2{stroke:#d4d6e8;stroke-miterlimit:10;stroke-width:6px;}.cls-2{fill:#fff;}</style></defs><title>Logooo</title><ellipse class="cls-1" cx="34.38" cy="24.2" rx="17.5" ry="17.03"/><path class="cls-1" d="M34.51,41.11H34.4C17.06,41.11,3,54.54,3,71.11v46.44c0,16.57,14.06,30,31.4,30,16.85,0,30.59-12.68,31.36-28.61V71.11" transform="translate(0 0)"/><rect class="cls-2" x="30.71" y="61.17" width="7.5" height="6.5" rx="1.41" ry="1.41"/><polyline class="cls-1" points="45.84 37.07 45.86 37.06 45.87 37.05"/><line class="cls-1" x1="38.78" y1="40.69" x2="38.76" y2="40.7"/><path class="cls-1" d="M65.83,118.93V69.11c0-16.56,13.68-30,30.57-30A30.76,30.76,0,0,1,118,47.9a29.63,29.63,0,0,1,9,21.21V118" transform="translate(0 0)"/><path class="cls-1" d="M157.16,39.09a29.72,29.72,0,0,1,21,8.87,30.44,30.44,0,0,1,8.79,21.46v48.83a30,30,0,1,1-60,0V69.43" transform="translate(0 0)"/><line class="cls-1" x1="65.83" y1="118.92" x2="65.76" y2="118.93"/><ellipse class="cls-1" cx="96.35" cy="20.03" rx="17.5" ry="17.03"/><ellipse class="cls-1" cx="158.03" cy="22.07" rx="17.5" ry="17.03"/><line class="cls-1" x1="157.16" y1="40.06" x2="157.13" y2="39.09"/><rect class="cls-2" x="153.96" y="61.17" width="7.5" height="6.5" rx="1.41" ry="1.41"/><rect class="cls-2" x="93.46" y="61.17" width="7.5" height="6.5" rx="1.41" ry="1.41"/><polygon class="cls-2" points="91.06 79.01 99.06 79.01 105.57 112.2 96.13 127.67 84.35 114.12 91.06 79.01"/></svg>